<svg width="69" height="15" viewBox="0 0 69 15" fill="none" xmlns="http://www.w3.org/2000/svg">
<path d="M-0.000234373 14.3L5.59977 0.300048H8.31977L13.9198 14.3H11.0198L9.81977 10.98H4.01977L2.81977 14.3H-0.000234373ZM4.81977 8.80005H9.01977L6.91977 3.02005L4.81977 8.80005ZM15.6943 14.3V0.300048H20.7543C22.461 0.300048 23.761 0.680048 24.6543 1.44005C25.5476 2.20005 25.9943 3.30005 25.9943 4.74005C25.9943 6.76672 25.1143 8.10672 23.3543 8.76005L26.6543 14.3H23.7343L20.7943 9.18005H18.2543V14.3H15.6943ZM18.2543 7.04005H20.5543C21.5143 7.04005 22.2143 6.85338 22.6543 6.48005C23.1076 6.09338 23.3343 5.51338 23.3343 4.74005C23.3343 3.20671 22.4143 2.44005 20.5743 2.44005H18.2543V7.04005ZM31.6691 14.3V2.62005H27.1891V0.300048H38.7691V2.62005H34.2891V14.3H31.6691ZM40.6357 14.3V0.300048H43.2557V14.3H40.6357ZM50.5388 14.6C49.4988 14.6 48.5788 14.5 47.7788 14.3C46.9922 14.1134 46.1922 13.7667 45.3788 13.26L46.1788 11.2C46.8855 11.6267 47.5522 11.9334 48.1788 12.12C48.8055 12.2934 49.5322 12.38 50.3588 12.38C51.2522 12.38 51.9322 12.22 52.3988 11.9C52.8655 11.58 53.0988 11.1067 53.0988 10.48C53.0988 10.12 53.0255 9.82672 52.8788 9.60005C52.7455 9.36005 52.4922 9.16005 52.1188 9.00005C51.7455 8.82672 51.1988 8.64671 50.4788 8.46005L49.6188 8.24005C48.6722 7.98672 47.9122 7.68672 47.3388 7.34005C46.7788 6.99338 46.3722 6.56672 46.1188 6.06005C45.8788 5.55338 45.7588 4.94005 45.7588 4.22005C45.7588 3.26005 45.9788 2.46671 46.4188 1.84005C46.8722 1.21338 47.4922 0.753382 48.2788 0.460048C49.0655 0.153382 49.9588 4.81606e-05 50.9588 4.81606e-05C51.8255 4.81606e-05 52.5988 0.0933815 53.2788 0.280048C53.9722 0.466715 54.6855 0.786715 55.4188 1.24005L54.6388 3.24005C54.0255 2.86671 53.4388 2.60672 52.8788 2.46005C52.3322 2.30005 51.6922 2.22005 50.9588 2.22005C49.2122 2.22005 48.3388 2.83338 48.3388 4.06005C48.3388 4.42005 48.4055 4.72005 48.5388 4.96005C48.6855 5.18672 48.9455 5.38672 49.3188 5.56005C49.6922 5.72005 50.2188 5.88672 50.8988 6.06005L51.7588 6.28005C52.7188 6.53338 53.4855 6.82671 54.0588 7.16005C54.6455 7.49338 55.0655 7.91338 55.3188 8.42005C55.5855 8.92672 55.7188 9.55338 55.7188 10.3C55.7188 11.2734 55.4922 12.08 55.0388 12.72C54.5988 13.3467 53.9855 13.82 53.1988 14.14C52.4255 14.4467 51.5388 14.6 50.5388 14.6ZM61.4152 14.3V2.62005H56.9352V0.300048H68.5152V2.62005H64.0352V14.3H61.4152Z" fill="#111111"/>
</svg>
