<svg width="377" height="39" viewBox="0 0 377 39" fill="none" xmlns="http://www.w3.org/2000/svg">
<path d="M10.516 36.73C9.256 37.038 8.024 37.262 6.82 37.402C5.616 37.542 4.258 37.612 2.746 37.612C2.746 32.488 2.508 26.608 2.032 19.972C1.584 13.308 1.01 7.974 0.31 3.97C1.934 3.886 3.558 3.76 5.182 3.592C6.806 3.424 8.556 3.214 10.432 2.962C11.72 2.794 13.512 2.542 15.808 2.206C18.104 1.87 19.686 1.632 20.554 1.492C20.694 1.968 20.792 2.514 20.848 3.13C20.932 3.718 20.974 4.376 20.974 5.104C20.974 5.608 20.932 6.154 20.848 6.742C20.792 7.33 20.68 7.974 20.512 8.674C18.048 8.926 16.004 9.136 14.38 9.304C12.756 9.472 11.566 9.584 10.81 9.64C10.866 10.816 10.908 12.006 10.936 13.21C10.992 14.386 11.02 15.562 11.02 16.738C12.224 16.458 13.4 16.262 14.548 16.15C15.724 16.01 16.9 15.94 18.076 15.94C18.328 16.864 18.496 17.844 18.58 18.88C18.692 19.888 18.748 21.162 18.748 22.702C17.236 22.702 15.85 22.73 14.59 22.786C13.358 22.842 12.182 22.94 11.062 23.08C11.006 25.684 10.936 28.134 10.852 30.43C10.768 32.698 10.656 34.798 10.516 36.73ZM46.9369 36.31C45.9569 36.954 44.7809 37.486 43.4089 37.906C42.0649 38.354 40.4549 38.69 38.5789 38.914C38.4109 37.234 38.1729 35.484 37.8649 33.664C37.5849 31.816 37.2209 29.94 36.7729 28.036C34.9809 28.064 33.3709 28.12 31.9429 28.204C30.5149 28.288 29.1709 28.414 27.9109 28.582C27.4629 29.842 27.0009 31.046 26.5249 32.194C26.0489 33.342 25.5729 34.392 25.0969 35.344C23.7249 35.12 22.4229 34.672 21.1909 34C19.9869 33.356 19.0349 32.586 18.3349 31.69C20.4909 27.686 22.3669 23.654 23.9629 19.594C25.5589 15.506 27.2249 10.368 28.9609 4.18C30.3329 4.18 31.5649 4.25 32.6569 4.39C33.7769 4.502 35.0089 4.726 36.3529 5.062C38.7889 8.926 40.9029 13.518 42.6949 18.838C44.4869 24.158 45.9009 29.982 46.9369 36.31ZM32.4469 13.798C32.0829 15.17 31.6769 16.626 31.2289 18.166C30.7809 19.706 30.3049 21.274 29.8009 22.87C30.7529 22.73 31.6769 22.618 32.5729 22.534C33.4969 22.45 34.4209 22.394 35.3449 22.366C34.8689 20.798 34.3929 19.3 33.9169 17.872C33.4409 16.444 32.9509 15.086 32.4469 13.798ZM57.9767 26.902V35.05C57.2487 35.274 56.1987 35.47 54.8267 35.638C53.4547 35.806 52.2087 35.89 51.0887 35.89C50.5567 29.786 50.1507 24.242 49.8707 19.258C49.6187 14.246 49.4927 10.004 49.4927 6.532C49.6887 6.392 49.8427 6.294 49.9547 6.238C50.0667 6.182 50.1787 6.126 50.2907 6.07C51.3827 5.51 52.6427 5.062 54.0707 4.726C55.4987 4.362 56.9827 4.152 58.5227 4.096C60.2027 6.532 61.6727 8.926 62.9327 11.278C64.2207 13.602 65.4107 16.094 66.5027 18.754C66.5027 15.394 66.4327 12.412 66.2927 9.808C66.1527 7.176 65.9567 5.034 65.7047 3.382C67.1607 2.934 68.6027 2.598 70.0307 2.374C71.4587 2.122 72.8727 1.996 74.2727 1.996C74.3567 3.592 74.4127 5.132 74.4407 6.616C74.4687 8.1 74.4827 9.542 74.4827 10.942C74.4827 14.386 74.3987 17.998 74.2307 21.778C74.0907 25.53 73.8947 29.142 73.6427 32.614C71.9067 32.894 70.4647 33.104 69.3167 33.244C68.1967 33.356 67.1047 33.44 66.0407 33.496C64.2487 29.156 62.7647 25.81 61.5887 23.458C60.4407 21.078 59.2507 18.908 58.0187 16.948C57.9907 18.096 57.9767 19.37 57.9767 20.77C57.9767 22.142 57.9767 24.186 57.9767 26.902ZM93.591 32.152C92.359 32.46 91.141 32.684 89.937 32.824C88.761 32.964 87.431 33.034 85.947 33.034C85.947 29.114 85.835 24.886 85.611 20.35C85.387 15.786 85.079 11.852 84.687 8.548C84.323 8.576 83.623 8.646 82.587 8.758C81.551 8.842 80.165 8.968 78.429 9.136C78.065 8.156 77.785 7.148 77.589 6.112C77.393 5.076 77.295 4.068 77.295 3.088C81.131 2.22 84.785 1.604 88.257 1.24C91.757 0.847999 95.705 0.651999 100.101 0.651999C100.241 1.128 100.339 1.674 100.395 2.29C100.479 2.878 100.521 3.536 100.521 4.264C100.521 4.768 100.479 5.314 100.395 5.902C100.339 6.49 100.227 7.134 100.059 7.834C98.995 7.834 97.959 7.848 96.951 7.876C95.943 7.876 94.949 7.904 93.969 7.96C94.081 9.696 94.165 11.502 94.221 13.378C94.277 15.254 94.305 17.186 94.305 19.174C94.305 21.022 94.249 23.024 94.137 25.18C94.025 27.308 93.843 29.632 93.591 32.152ZM126.466 36.31C125.486 36.954 124.31 37.486 122.938 37.906C121.594 38.354 119.984 38.69 118.108 38.914C117.94 37.234 117.702 35.484 117.394 33.664C117.114 31.816 116.75 29.94 116.302 28.036C114.51 28.064 112.9 28.12 111.472 28.204C110.044 28.288 108.7 28.414 107.44 28.582C106.992 29.842 106.53 31.046 106.054 32.194C105.578 33.342 105.102 34.392 104.626 35.344C103.254 35.12 101.952 34.672 100.72 34C99.5162 33.356 98.5642 32.586 97.8642 31.69C100.02 27.686 101.896 23.654 103.492 19.594C105.088 15.506 106.754 10.368 108.49 4.18C109.862 4.18 111.094 4.25 112.186 4.39C113.306 4.502 114.538 4.726 115.882 5.062C118.318 8.926 120.432 13.518 122.224 18.838C124.016 24.158 125.43 29.982 126.466 36.31ZM111.976 13.798C111.612 15.17 111.206 16.626 110.758 18.166C110.31 19.706 109.834 21.274 109.33 22.87C110.282 22.73 111.206 22.618 112.102 22.534C113.026 22.45 113.95 22.394 114.874 22.366C114.398 20.798 113.922 19.3 113.446 17.872C112.97 16.444 112.48 15.086 111.976 13.798ZM151.292 19.216C151.264 21.876 151.39 24.494 151.67 27.07C151.978 29.618 152.44 32.124 153.056 34.588C152.216 34.812 151.278 34.994 150.242 35.134C149.234 35.274 148.1 35.372 146.84 35.428C146.504 34.728 146.182 34.014 145.874 33.286C145.594 32.53 145.328 31.774 145.076 31.018C144.012 32.306 142.808 33.272 141.464 33.916C140.12 34.56 138.622 34.882 136.97 34.882C134.086 34.882 131.79 33.818 130.082 31.69C128.402 29.562 127.562 26.678 127.562 23.038C127.562 17.578 128.878 12.972 131.51 9.22C134.142 5.468 137.46 3.592 141.464 3.592C144.236 3.592 146.448 4.404 148.1 6.028C149.78 7.624 150.746 9.864 150.998 12.748C149.766 13.14 148.45 13.434 147.05 13.63C145.678 13.826 144.166 13.924 142.514 13.924C142.178 11.964 141.814 10.592 141.422 9.808C141.03 9.024 140.526 8.632 139.91 8.632C138.846 8.632 137.992 9.71 137.348 11.866C136.704 14.022 136.382 16.878 136.382 20.434C136.382 23.178 136.662 25.18 137.222 26.44C137.782 27.7 138.678 28.33 139.91 28.33C140.694 28.33 141.408 28.078 142.052 27.574C142.696 27.042 143.214 26.3 143.606 25.348C143.466 24.48 143.34 23.612 143.228 22.744C143.116 21.876 143.032 21.008 142.976 20.14C144.096 19.832 145.314 19.608 146.63 19.468C147.974 19.3 149.528 19.216 151.292 19.216ZM164.505 11.908C164.505 15.716 164.421 19.706 164.253 23.878C164.085 28.022 163.861 31.564 163.581 34.504C162.797 34.728 161.719 34.924 160.347 35.092C159.003 35.26 157.757 35.344 156.609 35.344C156.609 29.492 156.483 24.172 156.231 19.384C155.979 14.596 155.601 10.298 155.097 6.49C155.769 6.042 156.553 5.692 157.449 5.44C158.373 5.188 159.339 5.062 160.347 5.062C161.103 5.062 161.775 5.104 162.363 5.188C162.979 5.244 163.651 5.37 164.379 5.566C164.407 6.434 164.435 7.414 164.463 8.506C164.491 9.57 164.505 10.704 164.505 11.908ZM182.44 3.214C185.8 3.214 188.39 4.32 190.21 6.532C192.058 8.716 192.982 11.824 192.982 15.856C192.982 18.04 192.688 20.266 192.1 22.534C191.512 24.774 190.7 26.762 189.664 28.498C188.376 30.57 186.808 32.152 184.96 33.244C183.112 34.308 181.026 34.84 178.702 34.84C175.342 34.84 172.724 33.552 170.848 30.976C168.972 28.372 168.034 24.858 168.034 20.434C168.034 15.366 169.364 11.236 172.024 8.044C174.684 4.824 178.156 3.214 182.44 3.214ZM180.466 29.38C181.726 29.38 182.664 28.512 183.28 26.776C183.896 25.04 184.204 22.17 184.204 18.166C184.204 14.722 183.924 12.286 183.364 10.858C182.832 9.402 181.922 8.674 180.634 8.674C179.346 8.674 178.352 9.598 177.652 11.446C176.98 13.294 176.644 15.898 176.644 19.258C176.644 22.45 176.966 24.942 177.61 26.734C178.282 28.498 179.234 29.38 180.466 29.38ZM226.966 6.238C225.202 12.986 223.27 18.908 221.17 24.004C219.098 29.1 216.648 33.874 213.82 38.326C212.7 38.046 211.51 37.626 210.25 37.066C209.018 36.506 208.052 35.946 207.352 35.386C208.332 33.734 209.228 32.138 210.04 30.598C210.88 29.03 211.636 27.476 212.308 25.936C210.264 23.416 208.486 20.462 206.974 17.074C205.462 13.686 204.23 9.906 203.278 5.734C204.454 4.894 205.714 4.264 207.058 3.844C208.43 3.396 209.956 3.13 211.636 3.046C212.056 6.154 212.56 8.828 213.148 11.068C213.736 13.308 214.506 15.464 215.458 17.536C216.102 15.548 216.69 13.406 217.222 11.11C217.754 8.814 218.258 6.238 218.734 3.382C220.414 3.606 221.912 3.956 223.228 4.432C224.572 4.88 225.818 5.482 226.966 6.238ZM240.97 3.214C244.33 3.214 246.92 4.32 248.74 6.532C250.588 8.716 251.512 11.824 251.512 15.856C251.512 18.04 251.218 20.266 250.63 22.534C250.042 24.774 249.23 26.762 248.194 28.498C246.906 30.57 245.338 32.152 243.49 33.244C241.642 34.308 239.556 34.84 237.232 34.84C233.872 34.84 231.254 33.552 229.378 30.976C227.502 28.372 226.564 24.858 226.564 20.434C226.564 15.366 227.894 11.236 230.554 8.044C233.214 4.824 236.686 3.214 240.97 3.214ZM238.996 29.38C240.256 29.38 241.194 28.512 241.81 26.776C242.426 25.04 242.734 22.17 242.734 18.166C242.734 14.722 242.454 12.286 241.894 10.858C241.362 9.402 240.452 8.674 239.164 8.674C237.876 8.674 236.882 9.598 236.182 11.446C235.51 13.294 235.174 15.898 235.174 19.258C235.174 22.45 235.496 24.942 236.14 26.734C236.812 28.498 237.764 29.38 238.996 29.38ZM275.259 4.096C275.875 7.008 276.295 9.416 276.519 11.32C276.771 13.224 276.897 15.016 276.897 16.696C276.897 23.472 275.819 28.61 273.663 32.11C271.535 35.61 268.371 37.36 264.171 37.36C260.923 37.36 258.459 36.114 256.779 33.622C255.099 31.13 254.259 27.546 254.259 22.87C254.259 19.986 254.511 17.004 255.015 13.924C255.519 10.844 256.037 8.828 256.569 7.876C257.101 7.736 257.745 7.624 258.501 7.54C259.285 7.428 260.041 7.372 260.769 7.372C261.637 7.372 262.379 7.428 262.995 7.54C263.639 7.652 264.129 7.806 264.465 8.002C264.073 10.27 263.779 12.538 263.583 14.806C263.387 17.046 263.289 19.174 263.289 21.19C263.289 24.55 263.471 27.182 263.835 29.086C264.227 30.962 264.773 31.9 265.473 31.9C266.341 31.9 266.999 30.822 267.447 28.666C267.895 26.482 268.119 23.36 268.119 19.3C268.119 17.284 267.979 15.142 267.699 12.874C267.419 10.606 266.985 8.212 266.397 5.692C267.489 5.216 268.889 4.838 270.597 4.558C272.305 4.25 273.859 4.096 275.259 4.096ZM294.527 32.152C293.295 32.46 292.077 32.684 290.873 32.824C289.697 32.964 288.367 33.034 286.883 33.034C286.883 29.114 286.771 24.886 286.547 20.35C286.323 15.786 286.015 11.852 285.623 8.548C285.259 8.576 284.559 8.646 283.523 8.758C282.487 8.842 281.101 8.968 279.365 9.136C279.001 8.156 278.721 7.148 278.525 6.112C278.329 5.076 278.231 4.068 278.231 3.088C282.067 2.22 285.721 1.604 289.193 1.24C292.693 0.847999 296.641 0.651999 301.037 0.651999C301.177 1.128 301.275 1.674 301.331 2.29C301.415 2.878 301.457 3.536 301.457 4.264C301.457 4.768 301.415 5.314 301.331 5.902C301.275 6.49 301.163 7.134 300.995 7.834C299.931 7.834 298.895 7.848 297.887 7.876C296.879 7.876 295.885 7.904 294.905 7.96C295.017 9.696 295.101 11.502 295.157 13.378C295.213 15.254 295.241 17.186 295.241 19.174C295.241 21.022 295.185 23.024 295.073 25.18C294.961 27.308 294.779 29.632 294.527 32.152ZM322.919 4.096C323.535 7.008 323.955 9.416 324.179 11.32C324.431 13.224 324.557 15.016 324.557 16.696C324.557 23.472 323.479 28.61 321.323 32.11C319.195 35.61 316.031 37.36 311.831 37.36C308.583 37.36 306.119 36.114 304.439 33.622C302.759 31.13 301.919 27.546 301.919 22.87C301.919 19.986 302.171 17.004 302.675 13.924C303.179 10.844 303.697 8.828 304.229 7.876C304.761 7.736 305.405 7.624 306.161 7.54C306.945 7.428 307.701 7.372 308.429 7.372C309.297 7.372 310.039 7.428 310.655 7.54C311.299 7.652 311.789 7.806 312.125 8.002C311.733 10.27 311.439 12.538 311.243 14.806C311.047 17.046 310.949 19.174 310.949 21.19C310.949 24.55 311.131 27.182 311.495 29.086C311.887 30.962 312.433 31.9 313.133 31.9C314.001 31.9 314.659 30.822 315.107 28.666C315.555 26.482 315.779 23.36 315.779 19.3C315.779 17.284 315.639 15.142 315.359 12.874C315.079 10.606 314.645 8.212 314.057 5.692C315.149 5.216 316.549 4.838 318.257 4.558C319.965 4.25 321.519 4.096 322.919 4.096ZM351.963 22.786C351.963 26.174 350.661 29.03 348.057 31.354C345.481 33.678 342.317 34.84 338.565 34.84C337.193 34.84 335.793 34.63 334.365 34.21C332.965 33.79 331.579 33.16 330.207 32.32C329.843 29.1 329.563 25.768 329.367 22.324C329.199 18.88 329.115 15.24 329.115 11.404C329.115 9.724 329.115 8.464 329.115 7.624C329.143 6.784 329.171 6 329.199 5.272C330.795 4.488 332.461 3.886 334.197 3.466C335.933 3.046 337.655 2.836 339.363 2.836C342.779 2.836 345.383 3.438 347.175 4.642C348.967 5.818 349.863 7.526 349.863 9.766C349.863 11.138 349.555 12.384 348.939 13.504C348.351 14.596 347.469 15.548 346.293 16.36C348.085 16.892 349.471 17.732 350.451 18.88C351.459 20 351.963 21.302 351.963 22.786ZM341.673 10.942C341.673 9.822 341.365 8.982 340.749 8.422C340.133 7.862 339.223 7.582 338.019 7.582H337.893C337.753 9.15 337.627 10.648 337.515 12.076C337.431 13.476 337.361 14.82 337.305 16.108C338.733 15.8 339.811 15.198 340.539 14.302C341.295 13.406 341.673 12.286 341.673 10.942ZM337.179 29.212C337.571 29.408 337.935 29.562 338.271 29.674C338.607 29.758 338.943 29.8 339.279 29.8C340.399 29.8 341.379 29.254 342.219 28.162C343.059 27.07 343.479 25.838 343.479 24.466C343.479 23.318 343.143 22.45 342.471 21.862C341.827 21.246 340.875 20.938 339.615 20.938C339.251 20.938 338.873 20.98 338.481 21.064C338.089 21.148 337.655 21.288 337.179 21.484C337.151 21.876 337.137 22.296 337.137 22.744C337.137 23.164 337.137 23.822 337.137 24.718C337.137 25.978 337.137 26.916 337.137 27.532C337.137 28.148 337.151 28.708 337.179 29.212ZM376.283 34.42C375.471 34.672 372.867 34.966 368.471 35.302C364.103 35.638 360.449 35.806 357.509 35.806C356.809 31.354 356.165 26.16 355.577 20.224C355.017 14.288 354.709 9.346 354.653 5.398C358.965 4.586 362.703 4.012 365.867 3.676C369.059 3.312 372.181 3.13 375.233 3.13C375.233 4.166 375.163 5.272 375.023 6.448C374.911 7.596 374.715 8.8 374.435 10.06C372.867 10.06 371.243 10.088 369.563 10.144C367.883 10.2 366.133 10.284 364.313 10.396C364.257 11.012 364.215 11.726 364.187 12.538C364.159 13.322 364.131 14.512 364.103 16.108C365.531 15.688 366.959 15.38 368.387 15.184C369.815 14.988 371.271 14.89 372.755 14.89C372.979 15.87 373.147 16.878 373.259 17.914C373.371 18.95 373.427 20.168 373.427 21.568C371.831 21.568 370.249 21.624 368.681 21.736C367.113 21.82 365.587 21.946 364.103 22.114C364.131 23.374 364.173 24.606 364.229 25.81C364.285 27.014 364.369 28.162 364.481 29.254C365.293 29.254 367.001 29.1 369.605 28.792C372.209 28.456 374.169 28.162 375.485 27.91C375.709 28.498 375.891 29.464 376.031 30.808C376.199 32.124 376.283 33.328 376.283 34.42Z" fill="black"/>
</svg>
