<svg width="209" height="23" viewBox="0 0 209 23" fill="none" xmlns="http://www.w3.org/2000/svg">
<path d="M2.51172 22.3418C1.89648 22.319 1.3724 22.1025 0.939453 21.6924C0.50651 21.2594 0.278646 20.7354 0.255859 20.1201V11.6094C0.278646 9.99154 0.50651 8.46484 0.939453 7.0293C1.39518 5.59375 2.13574 4.38607 3.16113 3.40625C4.20931 2.40365 5.53092 1.85677 7.12598 1.76562H20.3193C20.9346 1.78841 21.4473 2.01628 21.8574 2.44922C22.2904 2.85938 22.5182 3.37207 22.541 3.9873C22.541 4.62533 22.3245 5.1722 21.8916 5.62793C21.4814 6.08366 20.9574 6.32292 20.3193 6.3457H8.28809C7.4222 6.39128 6.70443 6.72168 6.13477 7.33691C5.5651 7.95215 5.20052 8.65853 5.04102 9.45605C4.9043 10.2308 4.84733 11.0853 4.87012 12.0195V20.1201C4.84733 20.7581 4.60807 21.2936 4.15234 21.7266C3.69661 22.1367 3.14974 22.3418 2.51172 22.3418ZM6.47656 13.3525C6.47656 12.7145 6.70443 12.179 7.16016 11.7461C7.5931 11.2904 8.12858 11.0625 8.7666 11.0625H20.3193C20.9574 11.0625 21.4928 11.2904 21.9258 11.7461C22.3815 12.179 22.6094 12.7145 22.6094 13.3525C22.6094 13.9906 22.3929 14.5374 21.96 14.9932C21.5042 15.4261 20.9574 15.6426 20.3193 15.6426H8.7666C8.12858 15.6426 7.58171 15.4261 7.12598 14.9932C6.69303 14.5374 6.47656 13.9906 6.47656 13.3525ZM33.4102 16.6338C33.4102 15.9958 33.6266 15.4603 34.0596 15.0273C34.5153 14.5716 35.0622 14.3438 35.7002 14.3438H40.9297L40.041 11.8145C39.6764 10.8802 39.3118 10.0029 38.9473 9.18262C38.6055 8.33952 38.2067 7.57617 37.751 6.89258C37.3408 6.20898 36.8737 5.8444 36.3496 5.79883C35.8027 5.8444 35.3128 6.20898 34.8799 6.89258C34.4469 7.57617 34.0482 8.33952 33.6836 9.18262C33.3418 10.0029 32.9886 10.8802 32.624 11.8145L29.377 20.7012C29.1491 21.1797 28.8529 21.5785 28.4883 21.8975C28.1465 22.1937 27.6224 22.3418 26.916 22.3418C26.2552 22.3418 25.7083 22.1139 25.2754 21.6582C24.8652 21.2025 24.6829 20.6556 24.7285 20.0176C24.7513 19.7214 24.8197 19.4479 24.9336 19.1973L28.6934 9.49023C29.7415 6.93815 30.7897 4.87598 31.8379 3.30371C32.8633 1.75423 34.3672 0.968099 36.3496 0.945312C38.3092 0.968099 39.8018 1.75423 40.8271 3.30371C41.8753 4.8304 42.9235 6.89258 43.9717 9.49023L47.7314 19.1973C47.8454 19.4479 47.9137 19.7214 47.9365 20.0176C47.9821 20.6556 47.7884 21.2025 47.3555 21.6582C46.9453 22.1139 46.4098 22.3418 45.749 22.3418C44.9971 22.3418 44.4388 22.1937 44.0742 21.8975C43.7324 21.5785 43.4476 21.1797 43.2197 20.7012L42.5703 18.9238H35.7002C35.0622 18.9238 34.5267 18.696 34.0938 18.2402C33.638 17.8073 33.4102 17.2718 33.4102 16.6338ZM62.2578 0.842773C63.4427 0.842773 64.6048 0.979492 65.7441 1.25293C66.9062 1.52637 68.0114 1.93652 69.0596 2.4834C70.1077 3.00749 71.0306 3.71387 71.8281 4.60254C72.6484 5.49121 73.0928 6.55078 73.1611 7.78125V9.2168V20.1201C73.0244 21.4873 72.2725 22.2279 70.9053 22.3418C70.2673 22.3418 69.709 22.1367 69.2305 21.7266C68.7747 21.2936 68.5469 20.7581 68.5469 20.1201V8.84082C68.5013 8.13444 68.2279 7.55339 67.7266 7.09766C67.248 6.61914 66.7012 6.24316 66.0859 5.96973C65.4935 5.69629 64.8669 5.49121 64.2061 5.35449C63.568 5.21777 62.9186 5.14941 62.2578 5.14941C61.597 5.14941 60.9362 5.21777 60.2754 5.35449C59.6374 5.49121 59.0107 5.69629 58.3955 5.96973C57.8031 6.24316 57.2562 6.61914 56.7549 7.09766C56.2764 7.55339 56.0143 8.13444 55.9688 8.84082V20.1201C55.8548 21.4873 55.1143 22.2279 53.7471 22.3418C53.109 22.3418 52.5508 22.1367 52.0723 21.7266C51.6165 21.2936 51.3887 20.7581 51.3887 20.1201V9.2168V7.78125C51.457 6.55078 51.89 5.49121 52.6875 4.60254C53.485 3.71387 54.4079 3.00749 55.4561 2.4834C56.5042 1.93652 57.598 1.52637 58.7373 1.25293C59.8994 0.979492 61.0729 0.842773 62.2578 0.842773ZM76.8184 4.05566C76.8184 3.41764 77.0348 2.88216 77.4678 2.44922C77.9235 1.99349 78.4704 1.76562 79.1084 1.76562H99.001C99.639 1.76562 100.186 1.9821 100.642 2.41504C101.075 2.87077 101.291 3.41764 101.291 4.05566C101.291 4.69368 101.063 5.24056 100.607 5.69629C100.174 6.12923 99.639 6.3457 99.001 6.3457H91.3789V20.1885C91.2422 21.5557 90.4902 22.2962 89.123 22.4102C88.485 22.4102 87.9268 22.2051 87.4482 21.7949C86.9925 21.362 86.7646 20.8265 86.7646 20.1885V6.3457H79.1084C78.4704 6.3457 77.9349 6.11784 77.502 5.66211C77.0462 5.22917 76.8184 4.69368 76.8184 4.05566ZM112.57 16.6338C112.57 15.9958 112.787 15.4603 113.22 15.0273C113.675 14.5716 114.222 14.3438 114.86 14.3438H120.09L119.201 11.8145C118.837 10.8802 118.472 10.0029 118.107 9.18262C117.766 8.33952 117.367 7.57617 116.911 6.89258C116.501 6.20898 116.034 5.8444 115.51 5.79883C114.963 5.8444 114.473 6.20898 114.04 6.89258C113.607 7.57617 113.208 8.33952 112.844 9.18262C112.502 10.0029 112.149 10.8802 111.784 11.8145L108.537 20.7012C108.309 21.1797 108.013 21.5785 107.648 21.8975C107.307 22.1937 106.783 22.3418 106.076 22.3418C105.415 22.3418 104.868 22.1139 104.436 21.6582C104.025 21.2025 103.843 20.6556 103.889 20.0176C103.911 19.7214 103.98 19.4479 104.094 19.1973L107.854 9.49023C108.902 6.93815 109.95 4.87598 110.998 3.30371C112.023 1.75423 113.527 0.968099 115.51 0.945312C117.469 0.968099 118.962 1.75423 119.987 3.30371C121.035 4.8304 122.084 6.89258 123.132 9.49023L126.892 19.1973C127.006 19.4479 127.074 19.7214 127.097 20.0176C127.142 20.6556 126.949 21.2025 126.516 21.6582C126.105 22.1139 125.57 22.3418 124.909 22.3418C124.157 22.3418 123.599 22.1937 123.234 21.8975C122.893 21.5785 122.608 21.1797 122.38 20.7012L121.73 18.9238H114.86C114.222 18.9238 113.687 18.696 113.254 18.2402C112.798 17.8073 112.57 17.2718 112.57 16.6338ZM137.009 1.76562H151.433C152.071 1.78841 152.595 2.02767 153.005 2.4834C153.438 2.93913 153.654 3.486 153.654 4.12402C153.54 5.49121 152.8 6.23177 151.433 6.3457H138.171C137.305 6.39128 136.587 6.72168 136.018 7.33691C135.448 7.95215 135.026 8.65853 134.753 9.45605C134.502 10.2308 134.377 11.0283 134.377 11.8486C134.377 12.6689 134.502 13.4779 134.753 14.2754C135.026 15.0501 135.448 15.7451 136.018 16.3604C136.587 16.9756 137.305 17.306 138.171 17.3516H148.562C148.972 17.3288 149.188 17.1009 149.211 16.668V14.6855C149.188 14.2298 148.972 14.002 148.562 14.002H139.812C139.174 14.002 138.627 13.7855 138.171 13.3525C137.738 12.8968 137.521 12.3499 137.521 11.7119C137.521 11.0739 137.738 10.527 138.171 10.0713C138.627 9.63835 139.174 9.42188 139.812 9.42188H151.501C152.139 9.42188 152.686 9.63835 153.142 10.0713C153.552 10.5042 153.768 11.0283 153.791 11.6436V11.7119V19.71C153.768 20.3252 153.552 20.8379 153.142 21.248C152.709 21.681 152.185 21.9089 151.569 21.9316H137.009C135.414 21.8405 134.092 21.2367 133.044 20.1201C132.019 18.9808 131.278 17.6934 130.822 16.2578C130.389 14.8223 130.173 13.3525 130.173 11.8486C130.173 10.3447 130.401 8.875 130.856 7.43945C131.312 6.00391 132.053 4.72786 133.078 3.61133C134.104 2.47201 135.414 1.85677 137.009 1.76562ZM157.312 19.6416C157.312 19.0036 157.528 18.4681 157.961 18.0352C158.417 17.5794 158.964 17.3516 159.602 17.3516H166.164V6.3457H159.602C158.964 6.3457 158.428 6.11784 157.995 5.66211C157.539 5.22917 157.312 4.69368 157.312 4.05566C157.312 3.41764 157.528 2.88216 157.961 2.44922C158.417 1.99349 158.964 1.76562 159.602 1.76562H177.307C177.945 1.76562 178.492 1.9821 178.947 2.41504C179.38 2.87077 179.597 3.41764 179.597 4.05566C179.597 4.69368 179.369 5.24056 178.913 5.69629C178.48 6.12923 177.945 6.3457 177.307 6.3457H170.778V17.3516H177.307C177.945 17.3516 178.492 17.568 178.947 18.001C179.38 18.4567 179.597 19.0036 179.597 19.6416C179.597 20.2796 179.369 20.8265 178.913 21.2822C178.48 21.7152 177.945 21.9316 177.307 21.9316H159.602C158.964 21.9316 158.428 21.7038 157.995 21.248C157.539 20.8151 157.312 20.2796 157.312 19.6416ZM201.472 1.76562C202.634 1.78841 203.671 2.15299 204.582 2.85938C205.493 3.56576 206.223 4.40885 206.77 5.38867C207.339 6.36849 207.761 7.40527 208.034 8.49902C208.308 9.59277 208.444 10.7093 208.444 11.8486C208.444 13.3525 208.205 14.8337 207.727 16.292C207.271 17.7275 206.507 19.0036 205.437 20.1201C204.388 21.2367 203.067 21.8405 201.472 21.9316H189.543C187.948 21.8633 186.615 21.2708 185.544 20.1543C184.473 19.0378 183.71 17.7503 183.254 16.292C182.821 14.8337 182.604 13.3525 182.604 11.8486C182.604 10.3447 182.832 8.875 183.288 7.43945C183.744 5.98112 184.496 4.69368 185.544 3.57715C186.615 2.43783 187.948 1.83398 189.543 1.76562H190.192H200.822H201.472ZM200.31 17.3516C201.175 17.306 201.893 16.987 202.463 16.3945C203.055 15.7793 203.477 15.0729 203.728 14.2754C203.978 13.4779 204.104 12.6689 204.104 11.8486C204.104 11.0283 203.967 10.2308 203.693 9.45605C203.443 8.65853 203.033 7.95215 202.463 7.33691C201.893 6.72168 201.175 6.39128 200.31 6.3457H190.603C189.737 6.39128 189.019 6.72168 188.449 7.33691C187.88 7.95215 187.458 8.65853 187.185 9.45605C186.934 10.2308 186.809 11.0283 186.809 11.8486C186.809 12.6689 186.934 13.4779 187.185 14.2754C187.435 15.0729 187.845 15.7793 188.415 16.3945C189.007 16.987 189.737 17.306 190.603 17.3516H200.31Z" fill="#0B2842"/>
</svg>
