<svg width="84" height="26" viewBox="0 0 84 26" fill="none" xmlns="http://www.w3.org/2000/svg">
<path d="M6.86 17.93V23.75C6.34 23.91 5.59 24.05 4.61 24.17C3.63 24.29 2.74 24.35 1.94 24.35C1.56 19.99 1.27 16.03 1.07 12.47C0.89 8.89 0.8 5.86 0.8 3.38C0.94 3.28 1.05 3.21 1.13 3.17C1.21 3.13 1.29 3.09 1.37 3.05C2.15 2.65 3.05 2.33 4.07 2.09C5.09 1.83 6.15 1.68 7.25 1.64C8.45 3.38 9.5 5.09 10.4 6.77C11.32 8.43 12.17 10.21 12.95 12.11C12.95 9.71 12.9 7.58 12.8 5.72C12.7 3.84 12.56 2.31 12.38 1.13C13.42 0.809998 14.45 0.569999 15.47 0.409999C16.49 0.229999 17.5 0.139999 18.5 0.139999C18.56 1.28 18.6 2.38 18.62 3.44C18.64 4.5 18.65 5.53 18.65 6.53C18.65 8.99 18.59 11.57 18.47 14.27C18.37 16.95 18.23 19.53 18.05 22.01C16.81 22.21 15.78 22.36 14.96 22.46C14.16 22.54 13.38 22.6 12.62 22.64C11.34 19.54 10.28 17.15 9.44 15.47C8.62 13.77 7.77 12.22 6.89 10.82C6.87 11.64 6.86 12.55 6.86 13.55C6.86 14.53 6.86 15.99 6.86 17.93ZM37.6688 23.3C37.0888 23.48 35.2288 23.69 32.0888 23.93C28.9688 24.17 26.3588 24.29 24.2588 24.29C23.7588 21.11 23.2988 17.4 22.8788 13.16C22.4788 8.92 22.2588 5.39 22.2188 2.57C25.2988 1.99 27.9688 1.58 30.2288 1.34C32.5088 1.08 34.7388 0.95 36.9188 0.95C36.9188 1.69 36.8688 2.48 36.7688 3.32C36.6888 4.14 36.5488 5 36.3488 5.9C35.2288 5.9 34.0688 5.92 32.8688 5.96C31.6688 6 30.4188 6.06 29.1188 6.14C29.0788 6.58 29.0488 7.09 29.0288 7.67C29.0088 8.23 28.9888 9.08 28.9688 10.22C29.9888 9.92 31.0088 9.7 32.0288 9.56C33.0488 9.42 34.0888 9.35 35.1488 9.35C35.3088 10.05 35.4288 10.77 35.5088 11.51C35.5888 12.25 35.6288 13.12 35.6288 14.12C34.4888 14.12 33.3588 14.16 32.2388 14.24C31.1188 14.3 30.0288 14.39 28.9688 14.51C28.9888 15.41 29.0188 16.29 29.0588 17.15C29.0988 18.01 29.1588 18.83 29.2388 19.61C29.8188 19.61 31.0388 19.5 32.8988 19.28C34.7588 19.04 36.1588 18.83 37.0988 18.65C37.2588 19.07 37.3888 19.76 37.4888 20.72C37.6088 21.66 37.6688 22.52 37.6688 23.3ZM52.7701 11.99C52.2101 14.61 51.6401 16.93 51.0601 18.95C50.4801 20.97 49.8401 22.89 49.1401 24.71C48.4401 24.93 47.6501 25.1 46.7701 25.22C45.9101 25.34 45.0601 25.41 44.2201 25.43C42.9001 21.81 41.7701 18.25 40.8301 14.75C39.8901 11.25 39.0901 7.64 38.4301 3.92C39.4901 3.6 40.5801 3.35 41.7001 3.17C42.8201 2.97 43.9701 2.85 45.1501 2.81C45.3501 4.97 45.6501 7.29 46.0501 9.77C46.4701 12.23 47.0001 14.86 47.6401 17.66C48.1001 16.06 48.5201 14.39 48.9001 12.65C49.3001 10.91 49.7501 8.65 50.2501 5.87C51.3101 5.63 52.4401 5.45 53.6401 5.33C54.8401 5.19 55.8801 5.13 56.7601 5.15C56.8401 5.67 56.9201 6.23 57.0001 6.83C57.0801 7.43 57.2001 8.32 57.3601 9.5C57.6201 11.28 57.8101 12.63 57.9301 13.55C58.0701 14.47 58.2001 15.33 58.3201 16.13C59.1601 13.67 59.8501 11.24 60.3901 8.84C60.9501 6.44 61.3501 4.06 61.5901 1.7C62.6701 1.76 63.6701 1.96 64.5901 2.3C65.5101 2.64 66.3201 3.1 67.0201 3.68C66.3201 7.14 65.2701 10.66 63.8701 14.24C62.4901 17.8 60.9401 20.94 59.2201 23.66C58.6201 23.76 57.9701 23.85 57.2701 23.93C56.5701 24.01 55.8101 24.07 54.9901 24.11C54.9701 24.01 54.6301 22.44 53.9701 19.4C53.3301 16.34 52.9301 13.87 52.7701 11.99ZM81.1665 12.74C81.6265 13.38 81.9665 14.06 82.1865 14.78C82.4065 15.48 82.5165 16.24 82.5165 17.06C82.5165 19.12 81.7765 20.83 80.2965 22.19C78.8165 23.53 76.9965 24.2 74.8365 24.2C72.4565 24.2 70.4665 23.47 68.8665 22.01C67.2865 20.53 66.4965 18.78 66.4965 16.76C67.1365 16.44 67.9065 16.17 68.8065 15.95C69.7265 15.71 70.4865 15.59 71.0865 15.59C71.0865 17.11 71.3665 18.34 71.9265 19.28C72.5065 20.2 73.2865 20.66 74.2665 20.66C74.9665 20.66 75.5065 20.47 75.8865 20.09C76.2665 19.69 76.4565 19.15 76.4565 18.47C76.4565 17.89 76.2565 17.33 75.8565 16.79C75.4765 16.23 74.6165 15.44 73.2765 14.42C72.2765 13.66 71.5365 13.05 71.0565 12.59C70.5765 12.13 70.1665 11.68 69.8265 11.24C69.3465 10.56 68.9865 9.86 68.7465 9.14C68.5065 8.4 68.3865 7.61 68.3865 6.77C68.3865 4.77 69.0965 3.14 70.5165 1.88C71.9565 0.619999 73.8365 -0.0100006 76.1565 -0.0100006C78.2165 -0.0100006 79.8665 0.49 81.1065 1.49C82.3665 2.47 83.1965 3.93 83.5965 5.87C83.0165 6.25 82.3565 6.55 81.6165 6.77C80.8765 6.97 79.9065 7.11 78.7065 7.19C78.5265 5.95 78.2265 5.06 77.8065 4.52C77.3865 3.98 76.8065 3.71 76.0665 3.71C75.6065 3.71 75.2365 3.86 74.9565 4.16C74.6965 4.44 74.5665 4.82 74.5665 5.3C74.5665 5.96 74.7665 6.59 75.1665 7.19C75.5665 7.79 76.4465 8.6 77.8065 9.62C78.8065 10.36 79.5365 10.95 79.9965 11.39C80.4565 11.83 80.8465 12.28 81.1665 12.74Z" fill="black"/>
</svg>
