<svg width="126" height="23" viewBox="0 0 126 23" fill="none" xmlns="http://www.w3.org/2000/svg">
<path d="M5.525 14.775C5.525 15.375 5.53333 16.025 5.55 16.725C5.56667 17.4083 5.63333 19.0667 5.75 21.7C5 21.7 4.24167 21.6667 3.475 21.6C2.70833 21.55 2.03333 21.475 1.45 21.375C1.13333 18.725 0.9 16.175 0.75 13.725C0.6 11.2583 0.525 8.86667 0.525 6.55C0.525 6.03333 0.533333 5.48333 0.55 4.9C0.583333 4.31667 0.633333 3.65 0.7 2.9C1.56667 2.46667 2.61667 2.11667 3.85 1.85C5.1 1.58333 6.325 1.45 7.525 1.45C9.55833 1.45 11.125 1.88333 12.225 2.75C13.3417 3.6 13.9 4.79167 13.9 6.325C13.9 8.19167 13.15 9.88333 11.65 11.4C10.1667 12.9167 8.125 14.0417 5.525 14.775ZM8.75 7.225C8.75 6.25833 8.55833 5.525 8.175 5.025C7.80833 4.525 7.25 4.275 6.5 4.275C6.35 4.275 6.23333 4.275 6.15 4.275C6.08333 4.275 6.01667 4.28333 5.95 4.3C5.85 5.41667 5.76667 6.575 5.7 7.775C5.63333 8.975 5.58333 10.2333 5.55 11.55C6.61667 11.2667 7.41667 10.7667 7.95 10.05C8.48333 9.33333 8.75 8.39167 8.75 7.225ZM23.41 1.675C25.41 1.675 26.9516 2.33333 28.035 3.65C29.135 4.95 29.685 6.8 29.685 9.2C29.685 10.5 29.51 11.825 29.16 13.175C28.81 14.5083 28.3266 15.6917 27.71 16.725C26.9433 17.9583 26.01 18.9 24.91 19.55C23.81 20.1833 22.5683 20.5 21.185 20.5C19.185 20.5 17.6266 19.7333 16.51 18.2C15.3933 16.65 14.835 14.5583 14.835 11.925C14.835 8.90833 15.6266 6.45 17.21 4.55C18.7933 2.63333 20.86 1.675 23.41 1.675ZM22.235 17.25C22.985 17.25 23.5433 16.7333 23.91 15.7C24.2766 14.6667 24.46 12.9583 24.46 10.575C24.46 8.525 24.2933 7.075 23.96 6.225C23.6433 5.35833 23.1016 4.925 22.335 4.925C21.5683 4.925 20.9766 5.475 20.56 6.575C20.16 7.675 19.96 9.225 19.96 11.225C19.96 13.125 20.1516 14.6083 20.535 15.675C20.935 16.725 21.5016 17.25 22.235 17.25ZM46.5203 18.9C46.0036 19.4333 45.3703 19.9083 44.6203 20.325C43.8703 20.7417 43.0036 21.0917 42.0203 21.375C40.9536 18.8583 40.1453 17.075 39.5953 16.025C39.062 14.9583 38.4953 13.9833 37.8953 13.1C37.7453 13.1333 37.6286 13.1667 37.5453 13.2C37.4786 13.2167 37.412 13.2417 37.3453 13.275C37.312 14.475 37.262 15.65 37.1953 16.8C37.1286 17.9333 37.0453 19.0583 36.9453 20.175C36.1953 20.175 35.437 20.1417 34.6703 20.075C33.9036 20.025 33.2286 19.95 32.6453 19.85C32.662 19.0667 32.6703 18.4833 32.6703 18.1C32.687 17.7167 32.6953 17.3583 32.6953 17.025C32.6953 14.9083 32.6203 12.7 32.4703 10.4C32.337 8.1 32.1203 5.6 31.8203 2.9C32.6036 2.23333 33.5536 1.70833 34.6703 1.325C35.8036 0.941666 36.9203 0.749999 38.0203 0.749999C40.2036 0.749999 41.887 1.21667 43.0703 2.15C44.2536 3.08333 44.8453 4.39167 44.8453 6.075C44.8453 7.09167 44.5786 8.04167 44.0453 8.925C43.512 9.80833 42.7203 10.6 41.6703 11.3C42.5536 12.3167 43.387 13.4417 44.1703 14.675C44.9703 15.9083 45.7536 17.3167 46.5203 18.9ZM37.3953 10.15V10.25C38.1786 9.95 38.762 9.49167 39.1453 8.875C39.5286 8.25833 39.7203 7.475 39.7203 6.525C39.7203 5.59167 39.512 4.86667 39.0953 4.35C38.6953 3.83333 38.112 3.575 37.3453 3.575H37.2453C37.2953 5.20833 37.3286 6.50833 37.3453 7.475C37.3786 8.425 37.3953 9.31667 37.3953 10.15ZM55.3867 18.9C54.6534 19.0833 53.9284 19.2167 53.2117 19.3C52.5117 19.3833 51.7201 19.425 50.8367 19.425C50.8367 17.0917 50.7701 14.575 50.6367 11.875C50.5034 9.15833 50.3201 6.81667 50.0867 4.85C49.8701 4.86667 49.4534 4.90833 48.8367 4.975C48.2201 5.025 47.3951 5.1 46.3617 5.2C46.1451 4.61667 45.9784 4.01667 45.8617 3.4C45.7451 2.78333 45.6867 2.18333 45.6867 1.6C47.9701 1.08333 50.1451 0.716666 52.2117 0.499999C54.2951 0.266666 56.6451 0.149999 59.2617 0.149999C59.3451 0.433333 59.4034 0.758333 59.4367 1.125C59.4867 1.475 59.5117 1.86667 59.5117 2.3C59.5117 2.6 59.4867 2.925 59.4367 3.275C59.4034 3.625 59.3367 4.00833 59.2367 4.425C58.6034 4.425 57.9867 4.43333 57.3867 4.45C56.7867 4.45 56.1951 4.46667 55.6117 4.5C55.6784 5.53333 55.7284 6.60833 55.7617 7.725C55.7951 8.84167 55.8117 9.99167 55.8117 11.175C55.8117 12.275 55.7784 13.4667 55.7117 14.75C55.6451 16.0167 55.5367 17.4 55.3867 18.9ZM66.8748 21.625C66.1248 21.8083 65.3915 21.9417 64.6748 22.025C63.9581 22.1083 63.1498 22.15 62.2498 22.15C62.2498 19.1 62.1081 15.6 61.8248 11.65C61.5581 7.68333 61.2165 4.50833 60.7998 2.125C61.7665 2.075 62.7331 2 63.6998 1.9C64.6665 1.8 65.7081 1.675 66.8248 1.525C67.5915 1.425 68.6581 1.275 70.0248 1.075C71.3915 0.874999 72.3331 0.733332 72.8498 0.649999C72.9331 0.933332 72.9915 1.25833 73.0248 1.625C73.0748 1.975 73.0998 2.36667 73.0998 2.8C73.0998 3.1 73.0748 3.425 73.0248 3.775C72.9915 4.125 72.9248 4.50833 72.8248 4.925C71.3581 5.075 70.1415 5.2 69.1748 5.3C68.2081 5.4 67.4998 5.46667 67.0498 5.5C67.0831 6.2 67.1081 6.90833 67.1248 7.625C67.1581 8.325 67.1748 9.025 67.1748 9.725C67.8915 9.55833 68.5915 9.44167 69.2748 9.375C69.9748 9.29167 70.6748 9.25 71.3748 9.25C71.5248 9.8 71.6248 10.3833 71.6748 11C71.7415 11.6 71.7748 12.3583 71.7748 13.275C70.8748 13.275 70.0498 13.2917 69.2998 13.325C68.5665 13.3583 67.8665 13.4167 67.1998 13.5C67.1665 15.05 67.1248 16.5083 67.0748 17.875C67.0248 19.225 66.9581 20.475 66.8748 21.625ZM81.7107 1.675C83.7107 1.675 85.2524 2.33333 86.3357 3.65C87.4357 4.95 87.9857 6.8 87.9857 9.2C87.9857 10.5 87.8107 11.825 87.4607 13.175C87.1107 14.5083 86.6274 15.6917 86.0107 16.725C85.2441 17.9583 84.3107 18.9 83.2107 19.55C82.1107 20.1833 80.8691 20.5 79.4857 20.5C77.4857 20.5 75.9274 19.7333 74.8107 18.2C73.6941 16.65 73.1357 14.5583 73.1357 11.925C73.1357 8.90833 73.9274 6.45 75.5107 4.55C77.0941 2.63333 79.1607 1.675 81.7107 1.675ZM80.5357 17.25C81.2857 17.25 81.8441 16.7333 82.2107 15.7C82.5774 14.6667 82.7607 12.9583 82.7607 10.575C82.7607 8.525 82.5941 7.075 82.2607 6.225C81.9441 5.35833 81.4024 4.925 80.6357 4.925C79.8691 4.925 79.2774 5.475 78.8607 6.575C78.4607 7.675 78.2607 9.225 78.2607 11.225C78.2607 13.125 78.4524 14.6083 78.8357 15.675C79.2357 16.725 79.8024 17.25 80.5357 17.25ZM101.621 17.975C101.754 18.4083 101.879 19.025 101.996 19.825C102.129 20.6083 102.196 21.275 102.196 21.825C100.546 21.825 98.9628 21.8833 97.4461 22C95.9461 22.1167 94.0711 22.3333 91.8211 22.65C91.4211 20.1667 91.0628 17.025 90.7461 13.225C90.4461 9.40833 90.2961 6.23333 90.2961 3.7C91.0628 3.5 91.8128 3.35 92.5461 3.25C93.2961 3.15 94.0378 3.1 94.7711 3.1C94.9878 3.1 95.1961 3.10833 95.3961 3.125C95.6128 3.125 95.8378 3.14167 96.0711 3.175C95.9378 4.00833 95.8294 5.125 95.7461 6.525C95.6628 7.90833 95.6211 9.38333 95.6211 10.95C95.6211 13.2167 95.6461 14.9 95.6961 16C95.7628 17.1 95.8628 18.0417 95.9961 18.825C96.9294 18.5583 97.8878 18.35 98.8711 18.2C99.8711 18.05 100.788 17.975 101.621 17.975ZM108.901 6.85C108.901 9.11667 108.851 11.4917 108.751 13.975C108.651 16.4417 108.518 18.55 108.351 20.3C107.885 20.4333 107.243 20.55 106.426 20.65C105.626 20.75 104.885 20.8 104.201 20.8C104.201 17.3167 104.126 14.15 103.976 11.3C103.826 8.45 103.601 5.89167 103.301 3.625C103.701 3.35833 104.168 3.15 104.701 3C105.251 2.85 105.826 2.775 106.426 2.775C106.876 2.775 107.276 2.8 107.626 2.85C107.993 2.88333 108.393 2.95833 108.826 3.075C108.843 3.59167 108.86 4.175 108.876 4.825C108.893 5.45833 108.901 6.13333 108.901 6.85ZM119.577 1.675C121.577 1.675 123.119 2.33333 124.202 3.65C125.302 4.95 125.852 6.8 125.852 9.2C125.852 10.5 125.677 11.825 125.327 13.175C124.977 14.5083 124.494 15.6917 123.877 16.725C123.11 17.9583 122.177 18.9 121.077 19.55C119.977 20.1833 118.735 20.5 117.352 20.5C115.352 20.5 113.794 19.7333 112.677 18.2C111.56 16.65 111.002 14.5583 111.002 11.925C111.002 8.90833 111.794 6.45 113.377 4.55C114.96 2.63333 117.027 1.675 119.577 1.675ZM118.402 17.25C119.152 17.25 119.71 16.7333 120.077 15.7C120.444 14.6667 120.627 12.9583 120.627 10.575C120.627 8.525 120.46 7.075 120.127 6.225C119.81 5.35833 119.269 4.925 118.502 4.925C117.735 4.925 117.144 5.475 116.727 6.575C116.327 7.675 116.127 9.225 116.127 11.225C116.127 13.125 116.319 14.6083 116.702 15.675C117.102 16.725 117.669 17.25 118.402 17.25Z" fill="black"/>
</svg>
