<svg width="148" height="22" viewBox="0 0 148 22" fill="none" xmlns="http://www.w3.org/2000/svg">
<path d="M5.525 14.775C5.525 15.375 5.53333 16.025 5.55 16.725C5.56667 17.4083 5.63333 19.0667 5.75 21.7C5 21.7 4.24167 21.6667 3.475 21.6C2.70833 21.55 2.03333 21.475 1.45 21.375C1.13333 18.725 0.9 16.175 0.75 13.725C0.6 11.2583 0.525 8.86667 0.525 6.55C0.525 6.03333 0.533333 5.48333 0.55 4.9C0.583333 4.31667 0.633333 3.65 0.7 2.9C1.56667 2.46667 2.61667 2.11667 3.85 1.85C5.1 1.58333 6.325 1.45 7.525 1.45C9.55833 1.45 11.125 1.88333 12.225 2.75C13.3417 3.6 13.9 4.79167 13.9 6.325C13.9 8.19167 13.15 9.88333 11.65 11.4C10.1667 12.9167 8.125 14.0417 5.525 14.775ZM8.75 7.225C8.75 6.25833 8.55833 5.525 8.175 5.025C7.80833 4.525 7.25 4.275 6.5 4.275C6.35 4.275 6.23333 4.275 6.15 4.275C6.08333 4.275 6.01667 4.28333 5.95 4.3C5.85 5.41667 5.76667 6.575 5.7 7.775C5.63333 8.975 5.58333 10.2333 5.55 11.55C6.61667 11.2667 7.41667 10.7667 7.95 10.05C8.48333 9.33333 8.75 8.39167 8.75 7.225ZM30.9197 18.9C30.4031 19.4333 29.7697 19.9083 29.0197 20.325C28.2697 20.7417 27.4031 21.0917 26.4197 21.375C25.3531 18.8583 24.5447 17.075 23.9947 16.025C23.4614 14.9583 22.8947 13.9833 22.2947 13.1C22.1447 13.1333 22.0281 13.1667 21.9447 13.2C21.8781 13.2167 21.8114 13.2417 21.7447 13.275C21.7114 14.475 21.6614 15.65 21.5947 16.8C21.5281 17.9333 21.4447 19.0583 21.3447 20.175C20.5947 20.175 19.8364 20.1417 19.0697 20.075C18.3031 20.025 17.6281 19.95 17.0447 19.85C17.0614 19.0667 17.0697 18.4833 17.0697 18.1C17.0864 17.7167 17.0947 17.3583 17.0947 17.025C17.0947 14.9083 17.0197 12.7 16.8697 10.4C16.7364 8.1 16.5197 5.6 16.2197 2.9C17.0031 2.23333 17.9531 1.70833 19.0697 1.325C20.2031 0.941666 21.3197 0.749999 22.4197 0.749999C24.6031 0.749999 26.2864 1.21667 27.4697 2.15C28.6531 3.08333 29.2447 4.39167 29.2447 6.075C29.2447 7.09167 28.9781 8.04167 28.4447 8.925C27.9114 9.80833 27.1197 10.6 26.0697 11.3C26.9531 12.3167 27.7864 13.4417 28.5697 14.675C29.3697 15.9083 30.1531 17.3167 30.9197 18.9ZM21.7947 10.15V10.25C22.5781 9.95 23.1614 9.49167 23.5447 8.875C23.9281 8.25833 24.1197 7.475 24.1197 6.525C24.1197 5.59167 23.9114 4.86667 23.4947 4.35C23.0947 3.83333 22.5114 3.575 21.7447 3.575H21.6447C21.6947 5.20833 21.7281 6.50833 21.7447 7.475C21.7781 8.425 21.7947 9.31667 21.7947 10.15ZM39.743 1.675C41.743 1.675 43.2846 2.33333 44.368 3.65C45.468 4.95 46.018 6.8 46.018 9.2C46.018 10.5 45.843 11.825 45.493 13.175C45.143 14.5083 44.6596 15.6917 44.043 16.725C43.2763 17.9583 42.343 18.9 41.243 19.55C40.143 20.1833 38.9013 20.5 37.518 20.5C35.518 20.5 33.9596 19.7333 32.843 18.2C31.7263 16.65 31.168 14.5583 31.168 11.925C31.168 8.90833 31.9596 6.45 33.543 4.55C35.1263 2.63333 37.193 1.675 39.743 1.675ZM38.568 17.25C39.318 17.25 39.8763 16.7333 40.243 15.7C40.6096 14.6667 40.793 12.9583 40.793 10.575C40.793 8.525 40.6263 7.075 40.293 6.225C39.9763 5.35833 39.4346 4.925 38.668 4.925C37.9013 4.925 37.3096 5.475 36.893 6.575C36.493 7.675 36.293 9.225 36.293 11.225C36.293 13.125 36.4846 14.6083 36.868 15.675C37.268 16.725 37.8346 17.25 38.568 17.25ZM62.1033 8.975C62.1033 11.2917 61.2117 13.5583 59.4283 15.775C57.645 17.9917 55.4867 19.475 52.9533 20.225C52.22 20.225 51.47 20.1917 50.7033 20.125C49.9367 20.075 49.27 20 48.7033 19.9C48.4367 17.55 48.2367 15.325 48.1033 13.225C47.97 11.1083 47.9033 9.13333 47.9033 7.3C47.9033 6.68333 47.9033 6.05833 47.9033 5.425C47.92 4.79167 47.945 4.15833 47.9783 3.525C49.095 3.00833 50.1283 2.64167 51.0783 2.425C52.0283 2.19167 53.02 2.075 54.0533 2.075C56.67 2.075 58.6617 2.66667 60.0283 3.85C61.4117 5.03333 62.1033 6.74167 62.1033 8.975ZM53.2283 5.05C53.095 6.63333 52.9867 8.275 52.9033 9.975C52.8367 11.6583 52.8033 13.4083 52.8033 15.225C52.8033 15.5917 52.8033 15.875 52.8033 16.075C52.8033 16.2583 52.8117 16.425 52.8283 16.575C54.1617 15.875 55.1867 14.875 55.9033 13.575C56.62 12.2583 56.9783 10.7417 56.9783 9.025C56.9783 7.80833 56.67 6.84167 56.0533 6.125C55.4533 5.39167 54.645 5.025 53.6283 5.025C53.5117 5.025 53.4283 5.025 53.3783 5.025C53.3283 5.025 53.2783 5.03333 53.2283 5.05ZM75.9736 2.2C76.3403 3.93333 76.5903 5.36667 76.7236 6.5C76.8736 7.63333 76.9486 8.7 76.9486 9.7C76.9486 13.7333 76.307 16.7917 75.0236 18.875C73.757 20.9583 71.8736 22 69.3736 22C67.4403 22 65.9736 21.2583 64.9736 19.775C63.9736 18.2917 63.4736 16.1583 63.4736 13.375C63.4736 11.6583 63.6236 9.88333 63.9236 8.05C64.2236 6.21667 64.532 5.01667 64.8486 4.45C65.1653 4.36667 65.5486 4.3 65.9986 4.25C66.4653 4.18333 66.9153 4.15 67.3486 4.15C67.8653 4.15 68.307 4.18333 68.6736 4.25C69.057 4.31667 69.3486 4.40833 69.5486 4.525C69.3153 5.875 69.1403 7.225 69.0236 8.575C68.907 9.90833 68.8486 11.175 68.8486 12.375C68.8486 14.375 68.957 15.9417 69.1736 17.075C69.407 18.1917 69.732 18.75 70.1486 18.75C70.6653 18.75 71.057 18.1083 71.3236 16.825C71.5903 15.525 71.7236 13.6667 71.7236 11.25C71.7236 10.05 71.6403 8.775 71.4736 7.425C71.307 6.075 71.0486 4.65 70.6986 3.15C71.3486 2.86667 72.182 2.64167 73.1986 2.475C74.2153 2.29167 75.1403 2.2 75.9736 2.2ZM88.6115 14.125C89.2949 14.0583 90.0115 14.1 90.7615 14.25C91.5282 14.3833 92.0782 14.575 92.4115 14.825C92.2782 16.7417 91.5782 18.2333 90.3115 19.3C89.0615 20.35 87.3449 20.875 85.1615 20.875C83.0949 20.875 81.4782 20.2333 80.3115 18.95C79.1449 17.6667 78.5615 15.8417 78.5615 13.475C78.5615 10.4417 79.3949 7.88333 81.0615 5.8C82.7282 3.71667 84.8282 2.675 87.3615 2.675C88.9115 2.675 90.1615 3.15833 91.1115 4.125C92.0615 5.075 92.6115 6.40833 92.7615 8.125C91.8782 8.50833 91.1199 8.75833 90.4865 8.875C89.8532 8.99167 89.0532 9.05 88.0865 9.05C88.0865 7.96667 87.9449 7.13333 87.6615 6.55C87.3949 5.96667 87.0115 5.675 86.5115 5.675C85.8115 5.675 85.2282 6.31667 84.7615 7.6C84.2949 8.88333 84.0615 10.4333 84.0615 12.25C84.0615 14.0167 84.2699 15.375 84.6865 16.325C85.1199 17.2583 85.7282 17.725 86.5115 17.725C87.3115 17.725 87.8949 17.4083 88.2615 16.775C88.6282 16.1417 88.7449 15.2583 88.6115 14.125ZM102.384 18.9C101.65 19.0833 100.925 19.2167 100.209 19.3C99.5088 19.3833 98.7171 19.425 97.8338 19.425C97.8338 17.0917 97.7671 14.575 97.6338 11.875C97.5005 9.15833 97.3171 6.81667 97.0838 4.85C96.8671 4.86667 96.4505 4.90833 95.8338 4.975C95.2171 5.025 94.3921 5.1 93.3588 5.2C93.1421 4.61667 92.9755 4.01667 92.8588 3.4C92.7421 2.78333 92.6838 2.18333 92.6838 1.6C94.9671 1.08333 97.1421 0.716666 99.2088 0.499999C101.292 0.266666 103.642 0.149999 106.259 0.149999C106.342 0.433333 106.4 0.758333 106.434 1.125C106.484 1.475 106.509 1.86667 106.509 2.3C106.509 2.6 106.484 2.925 106.434 3.275C106.4 3.625 106.334 4.00833 106.234 4.425C105.6 4.425 104.984 4.43333 104.384 4.45C103.784 4.45 103.192 4.46667 102.609 4.5C102.675 5.53333 102.725 6.60833 102.759 7.725C102.792 8.84167 102.809 9.99167 102.809 11.175C102.809 12.275 102.775 13.4667 102.709 14.75C102.642 16.0167 102.534 17.4 102.384 18.9ZM113.735 6.85C113.735 9.11667 113.685 11.4917 113.585 13.975C113.485 16.4417 113.352 18.55 113.185 20.3C112.718 20.4333 112.077 20.55 111.26 20.65C110.46 20.75 109.718 20.8 109.035 20.8C109.035 17.3167 108.96 14.15 108.81 11.3C108.66 8.45 108.435 5.89167 108.135 3.625C108.535 3.35833 109.002 3.15 109.535 3C110.085 2.85 110.66 2.775 111.26 2.775C111.71 2.775 112.11 2.8 112.46 2.85C112.827 2.88333 113.227 2.95833 113.66 3.075C113.677 3.59167 113.693 4.175 113.71 4.825C113.727 5.45833 113.735 6.13333 113.735 6.85ZM124.411 1.675C126.411 1.675 127.953 2.33333 129.036 3.65C130.136 4.95 130.686 6.8 130.686 9.2C130.686 10.5 130.511 11.825 130.161 13.175C129.811 14.5083 129.328 15.6917 128.711 16.725C127.944 17.9583 127.011 18.9 125.911 19.55C124.811 20.1833 123.569 20.5 122.186 20.5C120.186 20.5 118.628 19.7333 117.511 18.2C116.394 16.65 115.836 14.5583 115.836 11.925C115.836 8.90833 116.628 6.45 118.211 4.55C119.794 2.63333 121.861 1.675 124.411 1.675ZM123.236 17.25C123.986 17.25 124.544 16.7333 124.911 15.7C125.278 14.6667 125.461 12.9583 125.461 10.575C125.461 8.525 125.294 7.075 124.961 6.225C124.644 5.35833 124.103 4.925 123.336 4.925C122.569 4.925 121.978 5.475 121.561 6.575C121.161 7.675 120.961 9.225 120.961 11.225C120.961 13.125 121.153 14.6083 121.536 15.675C121.936 16.725 122.503 17.25 123.236 17.25ZM137.996 15.775V20.625C137.563 20.7583 136.938 20.875 136.121 20.975C135.305 21.075 134.563 21.125 133.896 21.125C133.58 17.4917 133.338 14.1917 133.171 11.225C133.021 8.24167 132.946 5.71667 132.946 3.65C133.063 3.56667 133.155 3.50833 133.221 3.475C133.288 3.44167 133.355 3.40833 133.421 3.375C134.071 3.04167 134.821 2.775 135.671 2.575C136.521 2.35833 137.405 2.23333 138.321 2.2C139.321 3.65 140.196 5.075 140.946 6.475C141.713 7.85833 142.421 9.34167 143.071 10.925C143.071 8.925 143.03 7.15 142.946 5.6C142.863 4.03333 142.746 2.75833 142.596 1.775C143.463 1.50833 144.321 1.30833 145.171 1.175C146.021 1.025 146.863 0.949999 147.696 0.949999C147.746 1.9 147.78 2.81667 147.796 3.7C147.813 4.58333 147.821 5.44167 147.821 6.275C147.821 8.325 147.771 10.475 147.671 12.725C147.588 14.9583 147.471 17.1083 147.321 19.175C146.288 19.3417 145.43 19.4667 144.746 19.55C144.08 19.6167 143.43 19.6667 142.796 19.7C141.73 17.1167 140.846 15.125 140.146 13.725C139.463 12.3083 138.755 11.0167 138.021 9.85C138.005 10.5333 137.996 11.2917 137.996 12.125C137.996 12.9417 137.996 14.1583 137.996 15.775Z" fill="black"/>
</svg>
