<svg width="25" height="25" viewBox="0 0 25 25" fill="none" xmlns="http://www.w3.org/2000/svg">
<path d="M19.7026 12.109C20.2978 10.9508 20.3618 9.86786 19.8758 9.02616C19.3721 8.1537 18.3326 7.65736 16.9488 7.6286C15.9327 7.60775 14.779 7.8391 13.6221 8.28915C14.0208 6.92924 13.8922 5.84965 13.2375 5.19496C12.4508 4.40819 11.0452 4.38119 9.27974 5.11888C7.6335 5.80678 5.82446 7.08812 4.18574 8.72675C1.74521 11.1673 0.12373 13.9981 0.0461426 15.9499C0.0155273 16.1434 0 16.3369 0 16.5255C0 18.2732 1.2251 19.8954 3.44961 21.0932C5.59111 22.2464 8.42905 22.8814 11.4406 22.8814C14.4522 22.8814 17.2901 22.2464 19.4316 21.0932C21.6562 19.8954 22.8813 18.2732 22.8813 16.5255C22.8813 14.8471 21.7566 13.2903 19.7026 12.109Z" fill="#EA533B"/>
<path d="M12.7118 22.4576C9.70024 22.4576 6.8623 21.8226 4.7208 20.6694C2.49629 19.4717 1.27119 17.8494 1.27119 16.1017C1.27119 15.9131 1.28672 15.7196 1.31733 15.5261C1.39492 13.5743 3.01641 10.7436 5.45698 8.303C7.07939 6.68064 8.8686 5.40896 10.5016 4.71619C10.1181 4.8052 9.70972 4.93914 9.27979 5.11877C7.63354 5.80667 5.82451 7.08801 4.18579 8.72664C1.74521 11.1673 0.12373 13.9981 0.0461426 15.9499C0.0155273 16.1433 0 16.3368 0 16.5254C0 18.2731 1.2251 19.8954 3.44961 21.0931C5.59111 22.2463 8.42905 22.8813 11.4406 22.8813C13.8145 22.8813 16.0801 22.4865 17.9821 21.7547C16.3746 22.2139 14.5766 22.4576 12.7118 22.4576Z" fill="#D93C1C"/>
<path d="M17.7825 15.236C17.6571 13.7924 16.7043 12.5207 15.0997 11.655C13.5527 10.8205 11.5693 10.4592 9.51461 10.6377C7.45997 10.8162 5.56842 11.5141 4.18863 12.6029C2.75729 13.7323 2.038 15.1493 2.16344 16.5929C2.28888 18.0365 3.24166 19.3082 4.84635 20.1738C6.13488 20.869 7.72604 21.2358 9.40919 21.2357C9.74674 21.2357 10.0881 21.221 10.4314 21.1911C12.486 21.0127 14.3775 20.3148 15.7573 19.226C17.1887 18.0965 17.9079 16.6795 17.7825 15.236Z" fill="white"/>
<path d="M11.2479 20.7675C10.9047 20.7974 10.5633 20.8121 10.2257 20.8121C8.54259 20.8122 6.95138 20.4454 5.6629 19.7502C4.05826 18.8846 3.10538 17.6128 2.97999 16.1693C2.85455 14.7257 3.57379 13.3087 5.00519 12.1793C5.28834 11.9559 5.59337 11.7492 5.91656 11.5598C5.28214 11.8495 4.70021 12.1992 4.18863 12.6028C2.75729 13.7323 2.038 15.1493 2.16344 16.5928C2.28888 18.0364 3.24166 19.3082 4.84635 20.1738C6.13487 20.8689 7.72604 21.2357 9.40919 21.2356C9.74674 21.2356 10.0881 21.2209 10.4314 21.1911C12.0644 21.0492 13.594 20.579 14.8459 19.8454C13.7691 20.3371 12.5409 20.6552 11.2479 20.7675Z" fill="#E5E5E5"/>
<path d="M13.9964 15.2604C13.5322 13.3295 11.284 12.2082 8.98477 12.7609C6.68555 13.3136 5.19273 15.3343 5.65684 17.2652C5.88546 18.2161 6.54337 18.9982 7.50953 19.4676C8.10929 19.759 8.78404 19.9072 9.47999 19.9072C9.87266 19.9072 10.272 19.86 10.6684 19.7647C12.9677 19.212 14.4606 17.1914 13.9964 15.2604Z" fill="#333333"/>
<path d="M8.68618 18.6441C9.50525 18.6441 10.1692 17.9801 10.1692 17.161C10.1692 16.342 9.50525 15.678 8.68618 15.678C7.86711 15.678 7.20312 16.342 7.20312 17.161C7.20312 17.9801 7.86711 18.6441 8.68618 18.6441Z" fill="white"/>
<path d="M18.2206 5.72034C17.8695 5.72034 17.585 6.00491 17.585 6.35593C17.585 6.70696 17.8695 6.99153 18.2206 6.99153C19.5056 6.99153 20.5511 8.03699 20.5511 9.32205C20.5511 9.67307 20.8356 9.95764 21.1867 9.95764C21.5377 9.95764 21.8223 9.67307 21.8223 9.32205C21.8222 7.33606 20.2065 5.72034 18.2206 5.72034Z" fill="#FFA929"/>
<path d="M17.7966 2.11865C17.6374 2.11865 17.4761 2.12393 17.3173 2.13438C16.8503 2.16509 16.4966 2.5686 16.5272 3.03564C16.558 3.50264 16.9618 3.85615 17.4285 3.82568C17.5505 3.81768 17.6744 3.81357 17.7966 3.81357C20.834 3.81357 23.3051 6.28467 23.3051 9.32202C23.3051 9.69341 23.268 10.0644 23.1949 10.4246C23.1267 10.7603 23.2774 11.1184 23.5648 11.3047C23.8573 11.4944 24.2538 11.4799 24.533 11.2718C24.6984 11.1485 24.8149 10.9638 24.856 10.7618C24.9516 10.2908 25 9.8064 25 9.32197C25 5.35015 21.7686 2.11865 17.7966 2.11865Z" fill="#FFA929"/>
<path d="M11.4402 16.5255C11.9083 16.5255 12.2877 16.1461 12.2877 15.678C12.2877 15.21 11.9083 14.8306 11.4402 14.8306C10.9722 14.8306 10.5928 15.21 10.5928 15.678C10.5928 16.1461 10.9722 16.5255 11.4402 16.5255Z" fill="white"/>
</svg>
