<svg width="25" height="25" viewBox="0 0 25 25" fill="none" xmlns="http://www.w3.org/2000/svg">
<path d="M24.6024 4.52144C24.0469 4.76775 23.4703 4.96207 22.8786 5.10275C23.5306 4.48322 24.0208 3.70833 24.2973 2.84342C24.3763 2.5965 24.1081 2.38298 23.8851 2.51519C23.062 3.00342 22.1754 3.36968 21.2498 3.60392C21.1961 3.61751 21.1407 3.6244 21.0851 3.6244C20.9165 3.6244 20.7526 3.5618 20.6237 3.44819C19.639 2.58028 18.3724 2.10229 17.0575 2.10229C16.4885 2.10229 15.914 2.19098 15.35 2.36591C13.6023 2.90797 12.2539 4.34955 11.8308 6.12815C11.6721 6.79528 11.6291 7.46301 11.703 8.11277C11.7115 8.18743 11.6762 8.23955 11.6544 8.26399C11.6162 8.30684 11.562 8.3314 11.5058 8.3314C11.4995 8.3314 11.493 8.3311 11.4866 8.33049C7.66111 7.97507 4.21144 6.13205 1.77303 3.14099C1.64868 2.98842 1.41024 3.00714 1.31113 3.17713C0.833627 3.99633 0.581283 4.9333 0.581283 5.88672C0.581283 7.34787 1.16832 8.72485 2.18799 9.72868C1.75919 9.62701 1.34417 9.46689 0.958641 9.25276C0.772126 9.14914 0.542639 9.28232 0.540018 9.49566C0.513321 11.6663 1.78418 13.5978 3.68797 14.4675C3.64964 14.4684 3.6113 14.4688 3.5729 14.4688C3.27112 14.4688 2.96556 14.4397 2.66482 14.3822C2.45478 14.3421 2.27832 14.5414 2.34354 14.745C2.96148 16.6742 4.62256 18.0962 6.61035 18.4191C4.9606 19.5266 3.03944 20.1107 1.03989 20.1107L0.416529 20.1104C0.224467 20.1104 0.0620284 20.2356 0.0130835 20.4216C-0.03513 20.6048 0.0536779 20.7981 0.217457 20.8934C2.47063 22.2046 5.0407 22.8977 7.65093 22.8977C9.93573 22.8977 12.073 22.4442 14.0033 21.5501C15.773 20.7303 17.3368 19.5585 18.6513 18.0672C19.8758 16.6779 20.8334 15.0742 21.4973 13.3006C22.1301 11.61 22.4647 9.80603 22.4647 8.08375V8.00171C22.4646 7.72517 22.5897 7.46496 22.8079 7.28783C23.6359 6.61553 24.357 5.82412 24.951 4.93561C25.1078 4.70101 24.8605 4.40697 24.6024 4.52144Z" fill="#76A9EA"/>
</svg>
