<svg width="25" height="25" viewBox="0 0 25 25" fill="none" xmlns="http://www.w3.org/2000/svg">
<path d="M6.58882 13.315H9.3292V24.5968C9.3292 24.8195 9.50967 25 9.73242 25H14.3789C14.6016 25 14.7821 24.8195 14.7821 24.5968V13.3682H17.9324C18.1373 13.3682 18.3096 13.2145 18.333 13.011L18.8115 8.85762C18.8246 8.74336 18.7884 8.62891 18.712 8.54316C18.6354 8.45737 18.5259 8.40825 18.411 8.40825H14.7823V5.80469C14.7823 5.01987 15.2048 4.62187 16.0384 4.62187C16.1572 4.62187 18.411 4.62187 18.411 4.62187C18.6337 4.62187 18.8142 4.44131 18.8142 4.21865V0.406201C18.8142 0.183447 18.6337 0.00297852 18.411 0.00297852H15.1412C15.1182 0.00185547 15.0669 0 14.9915 0C14.4241 0 12.4521 0.111377 10.8943 1.54443C9.16836 3.13252 9.4083 5.03394 9.46563 5.36362V8.40815H6.58877C6.36602 8.40815 6.18555 8.58862 6.18555 8.81138V12.9117C6.1856 13.1344 6.36606 13.315 6.58882 13.315Z" fill="#385C8E"/>
</svg>
